# xmcd CD database file
#
# Track frame offsets:
#	150
#	12200
#	26993
#	38708
#	51975
#	70247
#	83487
#	99227
#	119265
#	138467
#	155367
#	170505
#	189210
#	206450
#	222140
#	242727
#	261624
#	287098
#	308888
#	334338
#
# Disc length: 4721 seconds
#
# Revision: 0
# Processed by: cddbd v1.5.1PL0 Copyright (c) Steve Scherf et al.
# Submitted via: CDex 1.51
#
DISCID=1e126f14
DTITLE=Freddy King - Hideaway - 20 Blues Hits (NorBara Collection)
DYEAR=2005
DGENRE=Blues
TTITLE0=Hideaway - 1961
TTITLE1=The Stumble - 1961
TTITLE2=Just Pickin' - 1961
TTITLE3=San-Ho-Zay - 1961
TTITLE4=Same Old Blues - 1971
TTITLE5=Worried Life Blues - 1971
TTITLE6=Key To The Highway - 1971
TTITLE7=Five Long Years - 1971
TTITLE8=Tore Down - 1971
TTITLE9=Palace Of The King - 1971
TTITLE10=Ain't No Sunshine - 1972
TTITLE11=Me And My Guitar - 1972
TTITLE12=I'd Rather Be Blind - 1972
TTITLE13=The Sky Is Crying - 1972
TTITLE14=Woke Up This Morning - 1975
TTITLE15=Dust My Broom - Live 1971
TTITLE16=Going Down The Highway - Live 1974
TTITLE17=Woman Across the River - Live 1974
TTITLE18=Have You Ever Loved A Woman - Live p1975
TTITLE19=Hideaway - Live 1974
EXTD=YEAR: 2005
EXTT0=
EXTT1=
EXTT2=
EXTT3=
EXTT4=
EXTT5=
EXTT6=
EXTT7=
EXTT8=
EXTT9=
EXTT10=
EXTT11=
EXTT12=
EXTT13=
EXTT14=
EXTT15=
EXTT16=
EXTT17=
EXTT18=
EXTT19=
PLAYORDER=
